<mxfile host="app.diagrams.net" agent="Mozilla/5.0 (Windows NT 10.0; Win64; x64) AppleWebKit/537.36 (KHTML, like Gecko) Chrome/127.0.0.0 Safari/537.36" version="24.7.7">
  <diagram name="Page-1" id="jtd1Q3chF4DpWqDnHH6t">
    <mxGraphModel dx="722" dy="416" grid="1" gridSize="10" guides="1" tooltips="1" connect="1" arrows="1" fold="1" page="1" pageScale="1" pageWidth="850" pageHeight="1100" math="0" shadow="0">
      <root>
        <mxCell id="0" />
        <mxCell id="1" parent="0" />
        <mxCell id="pwPuXMnceX2xQypQNJu_-3" value="" style="endArrow=none;html=1;rounded=0;" parent="1" edge="1">
          <mxGeometry width="50" height="50" relative="1" as="geometry">
            <mxPoint x="430" y="370" as="sourcePoint" />
            <mxPoint x="470" y="370" as="targetPoint" />
          </mxGeometry>
        </mxCell>
        <mxCell id="pwPuXMnceX2xQypQNJu_-6" style="edgeStyle=orthogonalEdgeStyle;rounded=0;orthogonalLoop=1;jettySize=auto;html=1;" parent="1" source="pwPuXMnceX2xQypQNJu_-7" edge="1">
          <mxGeometry relative="1" as="geometry">
            <mxPoint x="450" y="370" as="targetPoint" />
          </mxGeometry>
        </mxCell>
        <mxCell id="pwPuXMnceX2xQypQNJu_-7" value="&lt;font style=&quot;font-size: 20px;&quot;&gt;&lt;b&gt;r&lt;/b&gt;&lt;/font&gt;" style="rounded=0;whiteSpace=wrap;html=1;" parent="1" vertex="1">
          <mxGeometry x="360" y="290" width="40" height="40" as="geometry" />
        </mxCell>
        <mxCell id="XYfLUwFKFoc0xfZl1dUE-1" value="100" style="rounded=0;whiteSpace=wrap;html=1;fontSize=20;fontStyle=1" vertex="1" parent="1">
          <mxGeometry x="580" y="140" width="80" height="40" as="geometry" />
        </mxCell>
        <mxCell id="XYfLUwFKFoc0xfZl1dUE-2" value="e" style="whiteSpace=wrap;html=1;aspect=fixed;fontSize=13;fontStyle=1" vertex="1" parent="1">
          <mxGeometry x="580" y="180" width="40" height="40" as="geometry" />
        </mxCell>
        <mxCell id="XYfLUwFKFoc0xfZl1dUE-3" style="edgeStyle=orthogonalEdgeStyle;rounded=0;orthogonalLoop=1;jettySize=auto;html=1;entryX=0;entryY=0;entryDx=0;entryDy=0;" edge="1" parent="1" source="XYfLUwFKFoc0xfZl1dUE-4" target="XYfLUwFKFoc0xfZl1dUE-5">
          <mxGeometry relative="1" as="geometry" />
        </mxCell>
        <mxCell id="XYfLUwFKFoc0xfZl1dUE-4" value="" style="whiteSpace=wrap;html=1;aspect=fixed;fontSize=13;fontStyle=1" vertex="1" parent="1">
          <mxGeometry x="620" y="180" width="40" height="40" as="geometry" />
        </mxCell>
        <mxCell id="XYfLUwFKFoc0xfZl1dUE-5" value="0" style="rounded=0;whiteSpace=wrap;html=1;fontSize=20;fontStyle=1" vertex="1" parent="1">
          <mxGeometry x="580" y="260" width="80" height="40" as="geometry" />
        </mxCell>
        <mxCell id="XYfLUwFKFoc0xfZl1dUE-6" value="e" style="whiteSpace=wrap;html=1;aspect=fixed;fontSize=13;fontStyle=1" vertex="1" parent="1">
          <mxGeometry x="580" y="300" width="40" height="40" as="geometry" />
        </mxCell>
        <mxCell id="XYfLUwFKFoc0xfZl1dUE-15" style="edgeStyle=orthogonalEdgeStyle;rounded=0;orthogonalLoop=1;jettySize=auto;html=1;entryX=0;entryY=0;entryDx=0;entryDy=0;" edge="1" parent="1" source="XYfLUwFKFoc0xfZl1dUE-7" target="XYfLUwFKFoc0xfZl1dUE-8">
          <mxGeometry relative="1" as="geometry" />
        </mxCell>
        <mxCell id="XYfLUwFKFoc0xfZl1dUE-7" value="" style="whiteSpace=wrap;html=1;aspect=fixed;fontSize=13;fontStyle=1" vertex="1" parent="1">
          <mxGeometry x="620" y="300" width="40" height="40" as="geometry" />
        </mxCell>
        <mxCell id="XYfLUwFKFoc0xfZl1dUE-8" value="1" style="rounded=0;whiteSpace=wrap;html=1;fontSize=20;fontStyle=1" vertex="1" parent="1">
          <mxGeometry x="580" y="400" width="80" height="40" as="geometry" />
        </mxCell>
        <mxCell id="XYfLUwFKFoc0xfZl1dUE-9" value="e" style="whiteSpace=wrap;html=1;aspect=fixed;fontSize=13;fontStyle=1" vertex="1" parent="1">
          <mxGeometry x="580" y="440" width="40" height="40" as="geometry" />
        </mxCell>
        <mxCell id="XYfLUwFKFoc0xfZl1dUE-11" value="" style="whiteSpace=wrap;html=1;aspect=fixed;fontSize=13;fontStyle=1" vertex="1" parent="1">
          <mxGeometry x="620" y="440" width="40" height="40" as="geometry" />
        </mxCell>
        <mxCell id="XYfLUwFKFoc0xfZl1dUE-17" value="" style="endArrow=none;html=1;rounded=0;" edge="1" parent="1">
          <mxGeometry width="50" height="50" relative="1" as="geometry">
            <mxPoint x="690" y="510" as="sourcePoint" />
            <mxPoint x="730" y="510" as="targetPoint" />
          </mxGeometry>
        </mxCell>
        <mxCell id="XYfLUwFKFoc0xfZl1dUE-18" style="edgeStyle=orthogonalEdgeStyle;rounded=0;orthogonalLoop=1;jettySize=auto;html=1;" edge="1" parent="1">
          <mxGeometry relative="1" as="geometry">
            <mxPoint x="710" y="510" as="targetPoint" />
            <mxPoint x="660" y="450" as="sourcePoint" />
          </mxGeometry>
        </mxCell>
      </root>
    </mxGraphModel>
  </diagram>
</mxfile>
